<svg width="50" height="50" viewBox="0 0 50 50" fill="none" xmlns="http://www.w3.org/2000/svg">
<g id="Iconly/Light/Setting">
<g id="Setting">
<path id="Path_33946" fill-rule="evenodd" clip-rule="evenodd" d="M43.3472 15.8824L42.0504 13.6322C40.9534 11.7282 38.5223 11.0714 36.6156 12.1639V12.1639C35.7081 12.6985 34.6251 12.8502 33.6056 12.5855C32.5861 12.3208 31.7137 11.6614 31.1809 10.7528C30.8381 10.1752 30.6539 9.51739 30.6469 8.84582V8.84582C30.6778 7.76912 30.2716 6.72574 29.5208 5.95338C28.77 5.18102 27.7386 4.74545 26.6614 4.7459H24.0489C22.9936 4.74589 21.9819 5.16639 21.2374 5.91437C20.493 6.66236 20.0774 7.67614 20.0825 8.7314V8.7314C20.0512 10.9102 18.2759 12.6599 16.097 12.6597C15.4254 12.6527 14.7676 12.4685 14.19 12.1258V12.1258C12.2834 11.0333 9.85227 11.6901 8.75524 13.5941L7.36317 15.8824C6.26747 17.7841 6.91537 20.2137 8.81245 21.3172V21.3172C10.0456 22.0292 10.8052 23.3449 10.8052 24.7688C10.8052 26.1927 10.0456 27.5084 8.81245 28.2203V28.2203C6.91778 29.3164 6.26917 31.7402 7.36317 33.6361V33.6361L8.67896 35.9053C9.19296 36.8328 10.0554 37.5172 11.0754 37.8071C12.0953 38.097 13.1888 37.9684 14.1137 37.4499V37.4499C15.023 36.9194 16.1066 36.774 17.1236 37.0461C18.1406 37.3183 19.0067 37.9854 19.5295 38.8992C19.8722 39.4768 20.0564 40.1346 20.0634 40.8062V40.8062C20.0634 43.0073 21.8478 44.7917 24.0489 44.7917H26.6614C28.8551 44.7917 30.6364 43.0189 30.6469 40.8252V40.8252C30.6418 39.7666 31.0601 38.75 31.8086 38.0014C32.5572 37.2529 33.5739 36.8346 34.6324 36.8397C35.3024 36.8576 35.9575 37.0411 36.5394 37.3737V37.3737C38.441 38.4694 40.8706 37.8215 41.9742 35.9244V35.9244L43.3472 33.6361C43.8786 32.7239 44.0245 31.6374 43.7524 30.6173C43.4804 29.5973 42.813 28.7277 41.8979 28.2013V28.2013C40.9828 27.6748 40.3153 26.8053 40.0433 25.7852C39.7713 24.7651 39.9172 23.6787 40.4486 22.7665C40.7942 22.1631 41.2945 21.6628 41.8979 21.3172V21.3172C43.7836 20.2143 44.43 17.7988 43.3472 15.9015V15.9015V15.8824Z" stroke="#222222" stroke-width="3" stroke-linecap="round" stroke-linejoin="round"/>
<ellipse id="Ellipse_737" cx="25.3647" cy="24.7688" rx="5.49199" ry="5.49199" stroke="#222222" stroke-width="3" stroke-linecap="round" stroke-linejoin="round"/>
</g>
</g>
</svg>
